<!-- icon666.com - MILLIONS vector ICONS FREE --><svg version="1.1" id="Capa_1" xmlns="http://www.w3.org/2000/svg" xmlns:xlink="http://www.w3.org/1999/xlink" x="0px" y="0px" viewBox="0 0 512 512" style="enable-background:new 0 0 512 512;" xml:space="preserve"><circle style="fill:#AAC4DA;" cx="256" cy="362.667" r="96"></circle><g><path style="fill:#D9EEF7;" d="M458.667,320v85.333c-29.455,0-53.333,23.878-53.333,53.333H256c53.019,0,96-42.981,96-96 s-42.981-96-96-96l0,0h149.333C405.333,296.122,429.211,320,458.667,320z"></path><path style="fill:#D9EEF7;" d="M160,266.667h96c-53.019,0-96,42.981-96,96s42.981,96,96,96H106.667 c0-29.455-23.878-53.333-53.333-53.333V320c29.455,0,53.333-23.878,53.333-53.333H160z"></path></g><path style="fill:#31E8BB;" d="M10.667,480V245.333C10.702,233.566,20.233,224.035,32,224h448 c11.768,0.035,21.298,9.566,21.333,21.333V480c-0.035,11.768-9.566,21.298-21.333,21.333H32 C20.233,501.298,10.702,491.768,10.667,480z M458.667,405.333V320c-29.455,0-53.333-23.878-53.333-53.333H106.667 c0,29.455-23.878,53.333-53.333,53.333v85.333c29.455,0,53.333,23.878,53.333,53.333h298.667 C405.333,429.211,429.211,405.333,458.667,405.333z"></path><circle style="fill:#FFE451;" cx="330.667" cy="181.333" r="170.667"></circle><path style="fill:#D9EEF7;" d="M330.667,10.667C236.41,10.667,160,87.077,160,181.333h170.667V10.667z"></path><path style="fill:#95ADC0;" d="M32,74.667h85.333v42.667H32V74.667z"></path><g><path style="fill:#4C5B66;" d="M490.667,480c0,5.891-4.776,10.667-10.667,10.667H32c-5.891,0-10.667-4.776-10.667-10.667V245.333 c0-5.891,4.776-10.667,10.667-10.667h96v-21.333H32c-17.673,0-32,14.327-32,32V480c0,17.673,14.327,32,32,32h448 c17.673,0,32-14.327,32-32V298.667h-21.333V480z"></path><path style="fill:#4C5B66;" d="M116.448,277.333h22.219V256h-32C100.776,256,96,260.776,96,266.667 c0,23.564-19.103,42.667-42.667,42.667c-5.891,0-10.667,4.776-10.667,10.667v85.333c0,5.891,4.776,10.667,10.667,10.667 C76.897,416,96,435.103,96,458.667c0,5.891,4.776,10.667,10.667,10.667H160V448h-43.552c-4.588-26.838-25.61-47.86-52.448-52.448 v-65.771C90.838,325.193,111.86,304.171,116.448,277.333z"></path><path style="fill:#4C5B66;" d="M469.333,352H448v43.552c-26.838,4.588-47.86,25.61-52.448,52.448H352v21.333h53.333 c5.891,0,10.667-4.776,10.667-10.667C416,435.103,435.103,416,458.667,416c5.891,0,10.667-4.776,10.667-10.667V352z"></path><path style="fill:#4C5B66;" d="M42.667,256H64v21.333H42.667V256z"></path><path style="fill:#4C5B66;" d="M448,448h21.333v21.333H448V448z"></path><path style="fill:#4C5B66;" d="M42.667,448H64v21.333H42.667V448z"></path><path style="fill:#4C5B66;" d="M256,469.333c40.379,0.121,77.332-22.669,95.349-58.805l-19.061-9.6 c-21.122,42.142-72.408,59.181-114.549,38.059s-59.181-72.408-38.059-114.549l-19.061-9.6 c-7.479,14.831-11.346,31.22-11.285,47.829C149.398,421.55,197.116,469.269,256,469.333L256,469.333z"></path><path style="fill:#4C5B66;" d="M330.667,362.667c100.148-0.026,181.312-81.233,181.286-181.381 C511.926,81.138,430.719-0.026,330.572,0C298.776,0.008,267.541,8.377,240,24.267l10.667,18.464 C271.861,30.499,295.582,23.302,320,21.696v148.971H171.168c1.052-16.933,4.808-33.588,11.125-49.333l-19.776-8 c-37.502,92.918,7.421,198.645,100.339,236.147C284.407,358.178,307.427,362.655,330.667,362.667z M330.667,192 c5.891,0,10.667-4.776,10.667-10.667V21.877C429.453,27.714,496.156,103.881,490.319,192s-82.003,154.823-170.123,148.986 C240.211,335.688,176.509,271.986,171.211,192H330.667z"></path><path style="fill:#4C5B66;" d="M245.333,117.333h21.333v-32c0.244-11.538-8.911-21.089-20.449-21.333 c-0.295-0.006-0.589-0.006-0.884,0h-96v21.333h96V117.333z"></path><path style="fill:#4C5B66;" d="M32,128h85.333c5.891,0,10.667-4.776,10.667-10.667V74.667C128,68.776,123.224,64,117.333,64H32 c-5.891,0-10.667,4.776-10.667,10.667v42.667C21.333,123.224,26.109,128,32,128z M42.667,85.333h64v21.333h-64V85.333z"></path><path style="fill:#4C5B66;" d="M21.333,149.333H128v21.333H21.333V149.333z"></path></g></svg>